<svg width="25" height="24" viewBox="0 0 25 24" fill="none" xmlns="http://www.w3.org/2000/svg">
<path d="M3.125 3L21.875 21" stroke="#070707" stroke-width="1.5" stroke-linecap="round" stroke-linejoin="round"/>
<path d="M11.0249 10.5869C10.634 10.9619 10.4143 11.4707 10.4141 12.0012C10.4139 12.5317 10.6332 13.0406 11.0239 13.4159C11.4145 13.7912 11.9444 14.0021 12.4971 14.0023C13.0497 14.0025 13.5798 13.7919 13.9707 13.4169" stroke="#070707" stroke-width="1.5" stroke-linecap="round" stroke-linejoin="round"/>
<path d="M18.0801 17.3491C16.3812 18.4491 14.5228 19.0001 12.4999 19.0001C8.33325 19.0001 4.86138 16.6671 2.08325 12.0001C3.50929 9.60506 5.11763 7.82506 6.90825 6.65906M9.75304 5.36506C10.6462 5.11978 11.571 4.9969 12.4999 5.00006C16.6666 5.00006 20.1385 7.33306 22.9166 12.0001C22.1062 13.3611 21.2374 14.5241 20.3093 15.4881L9.75304 5.36506Z" stroke="#070707" stroke-width="1.5" stroke-linecap="round" stroke-linejoin="round"/>
</svg>
