<svg width="22" height="32" viewBox="0 0 22 32" fill="none" xmlns="http://www.w3.org/2000/svg">
<path d="M18.808 2.90476H16.3527V0.523804H0.39286V1.11904C0.485439 2.10142 0.918135 3.0245 1.62054 3.73809C1.56743 9.49529 2.84699 15.1907 5.36496 20.4048L5.53683 20.7619H12.4364L12.6083 20.4286C13.6987 18.2537 14.5426 15.9705 15.125 13.619H17.5804C19.0659 13.619 19.6429 12.2738 20.0357 11.4643C20.8697 9.50589 21.2872 7.40437 21.2634 5.28571C21.2634 4.65424 21.0047 4.04864 20.5442 3.60212C20.0838 3.15561 19.4592 2.90476 18.808 2.90476V2.90476ZM11.6752 19.5714H6.298C3.94587 14.5246 2.76808 9.0377 2.84822 3.49999V3.24999L2.66407 3.08333C2.2713 2.68703 1.95894 2.2226 1.74331 1.71428H15.125V3.49999C15.2051 9.0377 14.0274 14.5246 11.6752 19.5714V19.5714ZM18.808 11.0119C18.3906 11.9762 18.096 12.4286 17.5804 12.4286H15.3951C15.9965 9.68815 16.3173 6.89681 16.3527 4.09523H18.808C19.1336 4.09523 19.4459 4.22066 19.6761 4.44392C19.9064 4.66717 20.0357 4.96997 20.0357 5.28571C20.0353 7.25583 19.6174 9.20487 18.808 11.0119Z" fill="#333333"/>
<path d="M15.125 24.2381C15.0798 23.6301 14.8037 23.0599 14.3502 22.6378C13.8968 22.2156 13.298 21.9714 12.6697 21.9524H5.30359C4.67526 21.9714 4.0765 22.2156 3.62301 22.6378C3.16952 23.0599 2.89348 23.6301 2.84823 24.2381C2.57815 25.9524 1.62056 30.7143 1.62056 30.7619L1.48551 31.4762H16.4877L16.3527 30.7738C16.3527 30.7738 15.3828 25.9524 15.125 24.2381ZM2.971 30.2857C3.24109 28.8809 3.85493 25.7738 4.06364 24.4286C4.07397 24.1048 4.20552 23.7957 4.43371 23.5591C4.66189 23.3225 4.97111 23.1745 5.30359 23.1429H12.6697C12.9999 23.1772 13.3062 23.3264 13.5319 23.5627C13.7576 23.799 13.8874 24.1066 13.8973 24.4286C14.106 25.7738 14.7076 28.8809 14.99 30.2857H2.971Z" fill="#333333"/>
<path d="M8.98661 24.3333C8.50099 24.3333 8.02627 24.473 7.62249 24.7346C7.2187 24.9962 6.90399 25.3681 6.71815 25.8031C6.53231 26.2382 6.48369 26.7169 6.57843 27.1788C6.67317 27.6406 6.90702 28.0649 7.25041 28.3979C7.5938 28.7308 8.0313 28.9576 8.50759 29.0495C8.98389 29.1414 9.47758 29.0942 9.92623 28.914C10.3749 28.7338 10.7584 28.4286 11.0282 28.0371C11.298 27.6455 11.442 27.1852 11.442 26.7143C11.442 26.0828 11.1833 25.4772 10.7228 25.0307C10.2623 24.5842 9.63781 24.3333 8.98661 24.3333ZM8.98661 27.9048C8.7438 27.9048 8.50644 27.8349 8.30455 27.7041C8.10266 27.5733 7.9453 27.3874 7.85238 27.1699C7.75946 26.9523 7.73515 26.713 7.78252 26.482C7.82989 26.2511 7.94682 26.039 8.11851 25.8725C8.2902 25.706 8.50895 25.5926 8.7471 25.5467C8.98525 25.5007 9.23209 25.5243 9.45642 25.6144C9.68075 25.7045 9.87249 25.8571 10.0074 26.0529C10.1423 26.2487 10.2143 26.4788 10.2143 26.7143C10.2143 27.03 10.0849 27.3328 9.85471 27.5561C9.62447 27.7793 9.31221 27.9048 8.98661 27.9048Z" fill="#333333"/>
<path d="M10.2143 11.2381H7.75893V12.4286H10.2143V11.2381Z" fill="#333333"/>
<path d="M10.2143 14.8095H7.75893V16H10.2143V14.8095Z" fill="#333333"/>
<path d="M10.2143 7.66667H7.75893V8.85715H10.2143V7.66667Z" fill="#333333"/>
<path d="M10.2143 4.09525H7.75893V5.28572H10.2143V4.09525Z" fill="#333333"/>
</svg>
