<svg width="33" height="33" viewBox="0 0 33 33" fill="none" xmlns="http://www.w3.org/2000/svg">
<g clip-path="url(#clip0_270_1238)">
<path d="M23.8034 11.9577L20.1398 6.46862C19.7284 5.85206 18.9556 5.58529 18.2516 5.81687C17.0295 6.21893 6.23789 9.79558 3.66774 11.5105C-0.116249 14.0356 -1.13983 19.1687 1.38526 22.9522C3.47419 26.0822 7.34068 27.2862 10.759 26.1923L17.783 32.5712C18.107 32.8654 18.5349 33.0189 18.9716 32.998C19.273 32.9837 19.5618 32.8869 19.8082 32.7225C19.9193 32.6482 20.0221 32.5603 20.1134 32.4596L22.3321 30.0165C22.9448 29.3422 22.8942 28.2983 22.2199 27.6856L16.2193 22.2362C19.4352 19.0065 23.1383 14.6005 23.6971 13.9317C24.1664 13.37 24.2093 12.5665 23.8034 11.9577ZM21.1106 28.907L18.8918 31.3501L12.4051 25.459C12.5437 25.3776 12.6917 25.3254 12.827 25.2352C13.4413 24.8249 14.2047 24.1737 15.0363 23.3911L21.1106 28.907ZM11.9113 23.8625C8.87964 25.8859 4.78105 25.0686 2.7576 22.0364C0.734149 19.0048 1.55142 14.9062 4.58363 12.8828C7.04104 11.2427 18.7671 7.38386 18.7671 7.38386L22.4312 12.8734C22.4312 12.8739 14.9428 21.839 11.9113 23.8625Z" fill="#333333"/>
<path d="M11.6786 16.0832C10.4158 14.1912 7.84951 13.6792 5.95749 14.9419C4.06546 16.2048 3.55344 18.771 4.81621 20.6631C6.07898 22.5551 8.64532 23.0671 10.5373 21.8043C12.4294 20.5415 12.9414 17.9752 11.6786 16.0832ZM9.6216 20.4316C8.48477 21.1906 6.94801 20.8836 6.189 19.7468C5.43 18.61 5.73693 17.0732 6.87376 16.3142C8.01058 15.5552 9.54735 15.8621 10.3063 16.999C11.0648 18.1359 10.7585 19.6726 9.6216 20.4316Z" fill="#333333"/>
<path d="M27.9483 9.15527e-05C27.7811 0.369667 27.5402 0.734344 27.1816 0.973595C26.7031 1.29316 26.13 1.29316 25.4656 1.29367C24.6511 1.29367 23.7287 1.29477 22.8344 1.89096C21.6145 2.70494 21.1993 4.15585 21.0579 4.95005H22.742C22.8723 4.40774 23.1507 3.66362 23.7502 3.26375C24.2287 2.94419 24.8023 2.94419 25.4662 2.94368C26.2808 2.94368 27.2031 2.94258 28.0974 2.34639C29.006 1.73975 29.4636 0.781653 29.7001 9.15527e-05H27.9483V9.15527e-05Z" fill="#333333"/>
<path d="M29.5983 3.30011C29.4311 3.66969 29.1901 4.03436 28.8316 4.27361C28.3531 4.59317 27.78 4.59317 27.1156 4.59369C26.301 4.59369 25.3787 4.59478 24.4844 5.19098C23.2645 6.00496 22.8492 7.45587 22.7079 8.25006H24.392C24.5223 7.70775 24.8012 6.96364 25.4007 6.56377C25.8792 6.24421 26.4528 6.24421 27.1167 6.2437C27.9312 6.2437 28.8536 6.2426 29.7479 5.64641C30.6559 5.03977 31.1135 4.08167 31.35 3.30011H29.5983V3.30011Z" fill="#333333"/>
<path d="M31.2481 6.6002C31.0809 6.96978 30.84 7.33446 30.4814 7.57371C30.0029 7.89327 29.4298 7.89327 28.7654 7.89378C27.9508 7.89378 27.0285 7.89488 26.1342 8.49107C24.9143 9.30506 24.499 10.756 24.3577 11.5502H26.0418C26.1721 11.0078 26.451 10.2637 27.0505 9.86387C27.529 9.54431 28.1026 9.54431 28.7665 9.54379C29.581 9.54379 30.5034 9.54269 31.3977 8.9465C32.3057 8.33987 32.7633 7.38177 32.9998 6.6002H31.2481V6.6002Z" fill="#333333"/>
</g>
<defs>
<clipPath id="clip0_270_1238">
<rect width="33" height="33" fill="white"/>
</clipPath>
</defs>
</svg>
