<svg width="35" height="32" viewBox="0 0 35 32" fill="none" xmlns="http://www.w3.org/2000/svg">
<path d="M25.7872 31.6525H5.71368C2.56318 31.6525 0 29.1055 0 25.9745V6.02545C0 2.89452 2.56318 0.347488 5.71368 0.347488H25.7872C26.2473 0.347488 26.6205 0.718454 26.6205 1.17561C26.6205 1.63276 26.2472 2.00373 25.7872 2.00373H5.71368C3.4822 2.00373 1.66667 3.80775 1.66667 6.02537V25.9745C1.66667 28.1921 3.48227 29.9961 5.71368 29.9961H25.7872C28.0187 29.9961 29.834 28.1921 29.834 25.9745V6.02545C29.834 5.56821 30.2073 5.19733 30.6673 5.19733C31.1273 5.19733 31.5006 5.56829 31.5006 6.02545V25.9745C31.5007 29.1055 28.9377 31.6525 25.7872 31.6525Z" fill="#333333"/>
<path d="M15.7506 25.6127C10.417 25.6127 6.07753 21.3005 6.07753 15.9999C6.07753 10.6993 10.417 6.3866 15.7506 6.3866C21.0846 6.3866 25.4237 10.6993 25.4237 15.9999C25.4237 16.4458 25.3928 16.8939 25.331 17.3322C25.2675 17.7851 24.8449 18.1005 24.3908 18.038C23.935 17.9749 23.6171 17.5566 23.6806 17.1037C23.731 16.7408 23.7571 16.3698 23.7571 16C23.7571 11.6123 20.1655 8.04299 15.7506 8.04299C11.3358 8.04299 7.7442 11.6123 7.7442 15.9999C7.7442 20.3871 11.3358 23.9564 15.7506 23.9564C16.211 23.9564 16.5839 24.3274 16.5839 24.7845C16.5839 25.2417 16.211 25.6127 15.7506 25.6127Z" fill="#333333"/>
<path d="M34.1666 6.85355H25.7872C25.3271 6.85355 24.9539 6.48258 24.9539 6.02543V1.17567C24.9539 0.718438 25.3272 0.347549 25.7872 0.347549H34.1666C34.6267 0.347549 34.9999 0.718515 34.9999 1.17567V6.02543C35 6.48266 34.6267 6.85355 34.1666 6.85355ZM26.6205 5.19723H33.3333V2.00379H26.6206V5.19723H26.6205Z" fill="#333333"/>
<path d="M15.7506 19.1557C13.9995 19.1557 12.5751 17.7398 12.5751 15.9999C12.5751 14.26 13.9995 12.8442 15.7506 12.8442C17.5017 12.8442 18.9258 14.26 18.9258 15.9999C18.9258 17.7398 17.5016 19.1557 15.7506 19.1557ZM15.7506 14.5006C14.9186 14.5006 14.2418 15.1734 14.2418 16C14.2418 16.8266 14.9186 17.4994 15.7506 17.4994C16.5823 17.4994 17.2591 16.8266 17.2591 16C17.2591 15.1734 16.5823 14.5006 15.7506 14.5006Z" fill="#333333"/>
<path d="M20.1742 25.1755C19.8866 25.1755 19.6061 25.0272 19.4521 24.7614C19.2221 24.3652 19.3582 23.8588 19.757 23.6303L32.5755 16.2749L33.3334 15.7811V6.02545C33.3334 5.56821 33.7067 5.19733 34.1667 5.19733C34.6267 5.19733 35 5.56829 35 6.02545V16.2286C35 16.5079 34.8584 16.7689 34.6229 16.9214L33.4483 17.6849L20.5902 25.0644C20.4591 25.1399 20.3158 25.1755 20.1742 25.1755Z" fill="#333333"/>
<path d="M19.0267 25.6128C18.2166 25.6128 17.4626 25.1804 17.0578 24.4838L16.8275 24.0875C16.2008 23.0102 16.5736 21.6262 17.6583 21.0029L21.3871 18.8641C21.7322 18.6657 22.1245 18.5611 22.5216 18.5611C23.3316 18.5611 24.0862 18.994 24.491 19.6911L24.721 20.0863C25.0243 20.6093 25.1052 21.2175 24.9478 21.8003C24.7904 22.3826 24.4144 22.8695 23.8893 23.1708L20.161 25.3102C19.8161 25.5082 19.4238 25.6128 19.0267 25.6128ZM22.5217 20.2174C22.4153 20.2174 22.3138 20.2449 22.2205 20.2982L18.4923 22.4371C18.3523 22.5174 18.2525 22.6474 18.2101 22.8026C18.1683 22.9579 18.19 23.1202 18.2709 23.2588L18.5009 23.6556C18.6089 23.8411 18.8101 23.9565 19.0266 23.9565C19.1329 23.9565 19.2344 23.9295 19.3277 23.8761L23.056 21.7368C23.1959 21.6564 23.2963 21.5265 23.3381 21.3712C23.3799 21.2159 23.3588 21.0542 23.2779 20.915L23.0474 20.5193C22.9394 20.3328 22.7382 20.2174 22.5217 20.2174Z" fill="#333333"/>
</svg>
