<svg width="16" height="21" viewBox="0 0 16 21" fill="none" xmlns="http://www.w3.org/2000/svg">
<path d="M15.0677 11.3241C15.2009 11.2324 15.3098 11.1096 15.3851 10.9664C15.4604 10.8233 15.4997 10.6639 15.4997 10.5021C15.4997 10.3404 15.4604 10.181 15.3851 10.0378C15.3098 9.89463 15.2009 9.77188 15.0677 9.68014L2.06766 0.680138C1.91771 0.575962 1.74209 0.514873 1.55986 0.503504C1.37764 0.492135 1.19578 0.530922 1.03405 0.615652C0.872322 0.700382 0.736906 0.827814 0.642515 0.984102C0.548125 1.14039 0.498371 1.31956 0.498658 1.50214L0.498658 19.5021C0.499411 19.6843 0.549805 19.8628 0.644421 20.0185C0.739038 20.1741 0.874296 20.301 1.03565 20.3856C1.19701 20.4701 1.37835 20.5091 1.56019 20.4982C1.74203 20.4874 1.91747 20.4272 2.06766 20.3241L15.0677 11.3241Z" fill="#333333"/>
</svg>
