<svg width="30" height="30" viewBox="0 0 30 30" fill="none" xmlns="http://www.w3.org/2000/svg">
<path d="M15 0.600006C12.1519 0.600006 9.36785 1.44455 6.99979 3.02684C4.63172 4.60914 2.78603 6.85811 1.69613 9.48936C0.60623 12.1206 0.321062 15.016 0.876689 17.8093C1.43232 20.6026 2.80378 23.1685 4.81766 25.1823C6.83154 27.1962 9.39737 28.5677 12.1907 29.1233C14.984 29.6789 17.8794 29.3938 20.5106 28.3039C23.1419 27.214 25.3909 25.3683 26.9732 23.0002C28.5555 20.6321 29.4 17.8481 29.4 15C29.4 11.1809 27.8829 7.51819 25.1823 4.81767C22.4818 2.11714 18.8191 0.600006 15 0.600006V0.600006ZM15 28.2C12.3893 28.2 9.8372 27.4258 7.66647 25.9754C5.49574 24.525 3.80386 22.4634 2.80479 20.0514C1.80571 17.6394 1.54431 14.9854 2.05363 12.4248C2.56296 9.86426 3.82013 7.51225 5.66619 5.6662C7.51224 3.82014 9.86426 2.56297 12.4248 2.05364C14.9854 1.54432 17.6394 1.80572 20.0514 2.8048C22.4634 3.80387 24.525 5.49575 25.9754 7.66648C27.4258 9.83721 28.2 12.3893 28.2 15C28.2 18.5009 26.8093 21.8583 24.3338 24.3338C21.8583 26.8093 18.5009 28.2 15 28.2Z" fill="#333333"/>
<path d="M23.706 14.4H17.346C17.2395 13.9792 17.0209 13.5951 16.7135 13.2887C16.406 12.9823 16.0212 12.765 15.6 12.66V5.17202C15.6 5.01289 15.5368 4.86028 15.4243 4.74776C15.3118 4.63524 15.1591 4.57202 15 4.57202C14.8409 4.57202 14.6883 4.63524 14.5758 4.74776C14.4632 4.86028 14.4 5.01289 14.4 5.17202V12.654C13.9936 12.7634 13.6231 12.9777 13.3257 13.2755C13.0283 13.5732 12.8144 13.944 12.7055 14.3505C12.5966 14.757 12.5965 15.185 12.7052 15.5916C12.814 15.9982 13.0277 16.369 13.325 16.6669C13.6223 16.9648 13.9927 17.1792 14.399 17.2888C14.8053 17.3984 15.2334 17.3991 15.6401 17.2911C16.0468 17.183 16.418 16.9699 16.7164 16.673C17.0147 16.3762 17.2298 16.0062 17.34 15.6H23.706C23.8651 15.6 24.0178 15.5368 24.1303 15.4243C24.2428 15.3118 24.306 15.1592 24.306 15C24.306 14.8409 24.2428 14.6883 24.1303 14.5758C24.0178 14.4632 23.8651 14.4 23.706 14.4ZM15 16.23C14.7106 16.1844 14.4469 16.0369 14.2565 15.8142C14.0661 15.5914 13.9615 15.308 13.9615 15.015C13.9615 14.722 14.0661 14.4386 14.2565 14.2159C14.4469 13.9931 14.7106 13.8456 15 13.8C15.3254 13.8 15.6375 13.9293 15.8676 14.1594C16.0977 14.3895 16.227 14.7016 16.227 15.027C16.227 15.3524 16.0977 15.6645 15.8676 15.8946C15.6375 16.1247 15.3254 16.254 15 16.254V16.23Z" fill="#333333"/>
</svg>
